<svg width="1440" height="246" viewBox="0 0 1440 246" fill="none" xmlns="http://www.w3.org/2000/svg">
    <g opacity="0.5">
        <path d="M865 31L924.756 123.25L805.244 123.25L865 31Z" fill="#168D24"/>
        <path d="M105.145 123.082L45.2805 30.9023L164.792 30.761L105.145 123.082Z" fill="#2520C7"/>
        <path d="M572.145 123.082L512.281 30.9023L631.792 30.761L572.145 123.082Z" fill="#2520C7"/>
        <path d="M1042.15 123.082L982.281 30.9023L1101.79 30.761L1042.15 123.082Z" fill="#2520C7"/>
        <path d="M340.145 123.082L280.281 30.9023L399.792 30.761L340.145 123.082Z" fill="#2520C7"/>
        <path d="M807.145 123.082L747.281 30.9023L866.792 30.761L807.145 123.082Z" fill="#2520C7"/>
        <path d="M1277.15 123.082L1217.28 30.9023L1336.79 30.761L1277.15 123.082Z" fill="#2520C7"/>
        <path d="M222.145 123.082L162.281 30.9023L281.792 30.761L222.145 123.082Z" fill="#2520C7"/>
        <path d="M689.145 123.082L629.281 30.9023L748.792 30.761L689.145 123.082Z" fill="#2520C7"/>
        <path d="M1159.15 123.082L1099.28 30.9023L1218.79 30.761L1159.15 123.082Z" fill="#2520C7"/>
        <path d="M1391.15 123.082L1331.28 30.9023L1450.79 30.761L1391.15 123.082Z" fill="#2520C7"/>
        <path d="M47 31L106.756 123.25L-12.7558 123.25L47 31Z" fill="#E51818"/>
        <path d="M514 31L573.756 123.25L454.244 123.25L514 31Z" fill="#E51818"/>
        <path d="M984 31L1043.76 123.25L924.244 123.25L984 31Z" fill="#E51818"/>
        <path d="M282 31L341.756 123.25L222.244 123.25L282 31Z" fill="#E51818"/>
        <path d="M749 31L808.756 123.25L689.244 123.25L749 31Z" fill="#E51818"/>
        <path d="M1219 31L1278.76 123.25L1159.24 123.25L1219 31Z" fill="#E51818"/>
        <path d="M1451 31L1510.76 123.25L1391.24 123.25L1451 31Z" fill="#E51818"/>
        <path d="M163 31L222.756 123.25L103.244 123.25L163 31Z" fill="#168D24"/>
        <path d="M630 31L689.756 123.25L570.244 123.25L630 31Z" fill="#168D24"/>
        <path d="M1100 31L1159.76 123.25L1040.24 123.25L1100 31Z" fill="#168D24"/>
        <path d="M398 31L457.756 123.25L338.244 123.25L398 31Z" fill="#168D24"/>
        <path d="M1335 31L1394.76 123.25L1275.24 123.25L1335 31Z" fill="#168D24"/>
        <path d="M455.145 123.082L395.281 30.9023L514.792 30.761L455.145 123.082Z" fill="#2520C7"/>
        <path d="M925.145 123.082L865.281 30.9023L984.792 30.761L925.145 123.082Z" fill="#2520C7"/>
        <path d="M163.145 215.082L103.281 122.902L222.792 122.761L163.145 215.082Z" fill="#2520C7"/>
        <path d="M47.1453 215.082L-12.7195 122.902L106.792 122.761L47.1453 215.082Z" fill="#2520C7"/>
        <path d="M630.145 215.082L570.281 122.902L689.792 122.761L630.145 215.082Z" fill="#2520C7"/>
        <path d="M1100.15 215.082L1040.28 122.902L1159.79 122.761L1100.15 215.082Z" fill="#2520C7"/>
        <path d="M398.145 215.082L338.281 122.902L457.792 122.761L398.145 215.082Z" fill="#2520C7"/>
        <path d="M865.145 215.082L805.281 122.902L924.792 122.761L865.145 215.082Z" fill="#2520C7"/>
        <path d="M1335.15 215.082L1275.28 122.902L1394.79 122.761L1335.15 215.082Z" fill="#2520C7"/>
        <path d="M280.145 215.082L220.281 122.902L339.792 122.761L280.145 215.082Z" fill="#2520C7"/>
        <path d="M747.145 215.082L687.281 122.902L806.792 122.761L747.145 215.082Z" fill="#2520C7"/>
        <path d="M1217.15 215.082L1157.28 122.902L1276.79 122.761L1217.15 215.082Z" fill="#2520C7"/>
        <path d="M1449.15 215.082L1389.28 122.902L1508.79 122.761L1449.15 215.082Z" fill="#2520C7"/>
        <path d="M105 123L164.756 215.25L45.2442 215.25L105 123Z" fill="#E51818"/>
        <path d="M572 123L631.756 215.25L512.244 215.25L572 123Z" fill="#E51818"/>
        <path d="M1042 123L1101.76 215.25L982.244 215.25L1042 123Z" fill="#E51818"/>
        <path d="M340 123L399.756 215.25L280.244 215.25L340 123Z" fill="#E51818"/>
        <path d="M807 123L866.756 215.25L747.244 215.25L807 123Z" fill="#E51818"/>
        <path d="M1277 123L1336.76 215.25L1217.24 215.25L1277 123Z" fill="#E51818"/>
        <path d="M221 123L280.756 215.25L161.244 215.25L221 123Z" fill="#168D24"/>
        <path d="M688 123L747.756 215.25L628.244 215.25L688 123Z" fill="#168D24"/>
        <path d="M1158 123L1217.76 215.25L1098.24 215.25L1158 123Z" fill="#168D24"/>
        <path d="M456 123L515.756 215.25L396.244 215.25L456 123Z" fill="#168D24"/>
        <path d="M923 123L982.756 215.25L863.244 215.25L923 123Z" fill="#168D24"/>
        <path d="M1393 123L1452.76 215.25L1333.24 215.25L1393 123Z" fill="#168D24"/>
        <path d="M513.145 215.082L453.281 122.902L572.792 122.761L513.145 215.082Z" fill="#2520C7"/>
        <path d="M983.145 215.082L923.281 122.902L1042.79 122.761L983.145 215.082Z" fill="#2520C7"/>
        <g opacity="0.5">
            <path d="M-10 123L49.7557 215.25L-69.7558 215.25L-10 123Z" fill="#168D24"/>
            <path d="M-9.85469 123.082L-69.7195 30.9023L49.792 30.761L-9.85469 123.082Z" fill="#2520C7"/>
        </g>
    </g>
</svg>
